<?xml version="1.0" encoding="UTF-8"?>
<svg width="800px" height="600px" viewBox="0 0 800 600" version="1.1" xmlns="http://www.w3.org/2000/svg">
    <g stroke="none" stroke-width="1" fill="none" fill-rule="evenodd">
        <g transform="translate(100, 50)">
            <rect fill="#F0F0F0" x="0" y="0" width="300" height="400" rx="20"/>
            <rect fill="#E0E0E0" x="20" y="40" width="200" height="40" rx="10"/>
            <rect fill="#E0E0E0" x="80" y="100" width="200" height="40" rx="10"/>
            <rect fill="#E0E0E0" x="20" y="160" width="150" height="40" rx="10"/>
            <rect fill="#E0E0E0" x="100" y="220" width="180" height="40" rx="10"/>
            <circle fill="#6366F1" cx="30" y="350" r="20"/>
            <rect fill="#6366F1" x="60" y="330" width="120" height="40" rx="10"/>
        </g>
        <g transform="translate(450, 150)">
            <rect fill="#F0F0F0" x="0" y="0" width="250" height="300" rx="20"/>
            <rect fill="#E0E0E0" x="20" y="40" width="150" height="30" rx="8"/>
            <rect fill="#E0E0E0" x="60" y="90" width="170" height="30" rx="8"/>
            <rect fill="#E0E0E0" x="20" y="140" width="120" height="30" rx="8"/>
            <circle fill="#6366F1" cx="220" y="250" r="15"/>
            <rect fill="#6366F1" x="80" y="240" width="100" height="30" rx="8"/>
        </g>
        <g>
            <path d="M400,100 Q450,200 500,150" stroke="#6366F1" stroke-width="3" fill="none"/>
            <path d="M300,300 Q400,400 450,350" stroke="#6366F1" stroke-width="3" fill="none"/>
        </g>
    </g>
</svg>
